<svg xmlns="http://www.w3.org/2000/svg" viewBox="0 0 100 100">
  <rect width="100" height="100" rx="24" fill="#E6DCC3" />
  
  <g transform="translate(0, -2)">
    <rect x="20" y="25" width="60" height="45" rx="3" fill="#5D4037" stroke="#E6DCC3" stroke-width="1.5"/>
    <path d="M23 25 h16 a3 3 0 0 1 3 3 v3 a3 3 0 0 1 -3 3 h-16 v-6z" fill="#558B2F" transform="rotate(-90, 23, 25) translate(-14, 0)"/>

    <rect x="20" y="35" width="60" height="45" rx="3" fill="#5D4037" stroke="#E6DCC3" stroke-width="1.5"/>
    <path d="M43 35 h16 a3 3 0 0 1 3 3 v3 a3 3 0 0 1 -3 3 h-16 v-6z" fill="#558B2F" transform="rotate(-90, 43, 35) translate(-14, 0)"/>

    <rect x="20" y="45" width="60" height="45" rx="3" fill="#5D4037" stroke="#E6DCC3" stroke-width="1.5"/>
    <path d="M63 45 h16 a3 3 0 0 1 3 3 v3 a3 3 0 0 1 -3 3 h-16 v-6z" fill="#558B2F" transform="rotate(-90, 63, 45) translate(-14, 0)"/>
  </g>
</svg>